<?xml version="1.0" encoding="utf-8"?>
<!-- Generator: Adobe Illustrator 23.0.1, SVG Export Plug-In . SVG Version: 6.00 Build 0)  -->
<svg version="1.1" id="Layer_1" xmlns="http://www.w3.org/2000/svg" xmlns:xlink="http://www.w3.org/1999/xlink" x="0px" y="0px"
	 viewBox="0 0 240.7 240.7" style="enable-background:new 0 0 240.7 240.7;" xml:space="preserve">
<style type="text/css">
	.st0{fill:none;}
	.st1{fill:#1B4573;}
	.st2{fill:#FFFFFF;}
</style>
<title>Asset 1</title>
<g>
	<g id="Layer_1-2">
		<rect y="0" class="st0" width="240.7" height="240.7"/>
		<path class="st1" d="M47.4,199.2c-1.8-1.9-9-4.8-12.9-8.1c-4.9-3.5-3.3,1.6-3.3,1.6c6.9,5.5,15.4,11.6,15.4,11.6
			C49.5,204,49.2,200.5,47.4,199.2z"/>
		<path class="st1" d="M58.2,184.7c-0.3-4.2-0.9-8.4-1.8-12.5c-1.4-6.9-2.8-2.6-2.8-2.6c-0.3,5.5,0.5,9.6,1,15.1
			C56.4,192.1,58.2,184.7,58.2,184.7z"/>
		<path class="st1" d="M64.3,203.8c1.8-17-1.1-34.3-8.5-49.7l-1-1.9l-0.8,2c-0.8,2.2-1.5,4.4-2.1,6.5c-0.8-6.4-2.5-12.6-5.1-18.5
			l-0.6-1.2l-0.9,0.9c0,0-0.1,0.1-0.1,0.1c2.2-8.8,2-21,2-21.6v-1.9l-1.4,0.7c-1.3,0.6-2.5,1.3-3.7,2.1c2.9-5.1,4.7-10.7,5.3-16.5
			l0.1-1.4c6.1-5.3,8.2-14.3,8.8-19c6.7-3.3,15.9-17.2,16.3-17.8l1-1.6l-1.6-0.5l-0.2-0.1c9-7.6,15.7-21.2,16-21.8l1.1-2.3l-2.1,0.3
			C75.8,42.4,67.7,49.4,64.1,53c0-0.4,0-0.7,0-0.8v-1.5L63,51c-9.3,1.6-15.9,14.3-18.3,19.6c-0.8-1.8-1.5-2.9-1.5-3l-0.7-1.3
			l-0.9,1.1c-3.7,4.9-6.7,10.2-8.9,15.9l-0.8-0.8l-0.6,1.1c-5.6,9.7-7.1,21.1-7.5,26.3c-1-1.3-2.2-2.6-3.4-3.7l-1-1l-0.5,1.5
			c-4.9,14.4-3,28.8-1.9,34.6c-0.6-0.3-1.1-0.5-1.2-0.6l-1.5-0.7l0.1,2c0.8,21,6.5,32.1,9.4,36.5c-1.9-0.2-3.8-0.1-5.7,0.1l-1.5,0.3
			l0.8,1.7c19.5,41.2,47.9,28,48.3,27.9 M55,157.6c6,13.8,8.6,28.9,7.4,44c-3.2-4.1-6.8-7.9-10.8-11.2
			C50.1,179.4,51.3,168.1,55,157.6z M50.3,166.2h0.2c-1.2,5.5-1.7,11.1-1.6,16.7c-1-0.2-1.4-1.1-2.6-2.3c-1.2-2.4-1.4-7.7-2.1-13.9
			c-0.7-8.4-2.8-4.3-2.8-4.3c-0.7,4.9-0.2,8.4,1.4,17.6c0.6,1.4,0.1,3.1-1.3,3.9c-1.2-0.6-2.3-1.1-3.5-1.6
			c-0.5-2.9-3.9-24.2,7.5-37.2C48.3,151.7,49.8,158.9,50.3,166.2z M45.1,122.4c-0.1,5.2-0.6,19.4-4.1,24.6l0.2,0.2
			c-1.2,2-2.2,4.1-3,6.2c-0.3-0.3-0.6-0.5-0.9-0.7c-1.5-2.6-0.2-10.1,0.5-13c2-6.2-1.7-3.9-1.7-3.9c-1.2,1.5-1.4,5.8-1.9,9.4
			c0,5.5-1.3,7-2.2,7.4c-1.4-1.5-2.9-2.9-4.5-4.2C27.8,145.5,30.3,130.5,45.1,122.4z M36,125.9l0.2,0.2c-0.2,0.1-0.3,0.3-0.5,0.4
			c-2.7-0.4,1.3-8.1,2.5-10.6c2.4-4.3,1.5-5.3,1.5-5.3c-1.9-0.6-3.6,1.5-4.3,3.8c-1.3,4.5-3.4,6.6-4.5,7.5c-0.7-1.6-1.4-3.1-2.3-4.6
			c1.6-2.7,7-10.7,16.5-11.3C44.6,109.5,42.6,118.8,36,125.9z M43.7,103.2l0.1,0.4l-0.8,0.1c1-4,4.3-9.1,6.6-12.5
			c3.6-6.9,0.8-6-0.5-3.4c-1.1,2.1-7,9.9-9.2,12.7c-0.1-1.1-0.2-2.2-0.4-3.3c1.2-1.9,7.6-11.5,15-14.2
			C53.9,87.3,51.8,98.8,43.7,103.2L43.7,103.2z M61.6,77.2c-0.8-0.7,0.3-3.1,1.4-4.8c2.2-4.9-0.3-2.3-1.5-1.7
			c-2.4,1-6.7,7.5-8.3,10.2c-1.6,0.7-3.1,1.6-4.5,2.7c-0.1-0.6-0.2-1.1-0.3-1.6c4.8-4,8.7-8.9,11.6-14.4c0.8-0.5,4.4-2.2,10-0.9
			C67.4,70.3,64.6,73.8,61.6,77.2L61.6,77.2z M63.6,57.1c0.1-0.1,8.5-10.4,21.3-13.3c-2.6,4.6-8.7,14.8-15.9,20v0.1
			c-0.5-0.1-1.1-0.2-1.6-0.2c0.7-2.4,3.8-5.8,5.9-8.2c3.9-5.7,1.2-4.9,0.4-4.5c-3.5,2.2-8.3,9.6-10.3,12.8c-0.7,0.1-1.4,0.3-2.1,0.5
			C62.4,61.9,63.1,59.5,63.6,57.1L63.6,57.1z M62,53.9c-0.9,6.7-3.5,13-7.6,18.3c-2.8-1.2,3.5-9.1,3.5-9.1c2.8-7.3-1.5-1.9-2.8-0.7
			c-3.5,5.2-6.9,11-8.4,13.5c-0.3-0.9-0.6-1.8-1-2.6C47.2,70.1,53.4,56.5,62,53.9z M42.1,70.4c1.3,2.7,4.1,8.8,4.5,14.6
			c-1.9,1.7-3.6,3.5-5.1,5.4c-1-1-0.6-5.3-0.9-9.1c0.5-7.7-1.7-1.7-1.7-1.7c-0.6,3.2-1.4,6.3-2.4,9.3c-0.7-1.3-1.5-2.5-2.3-3.6
			C36.2,80,38.8,75,42.1,70.4z M32.1,86.4c2,2.5,6.7,9.6,5.5,19c-2.4,1.2-4.6,2.9-6.5,4.8c-3.3-1.7,2.2-12.3,2.2-12.3
			c1.7-6.8-1.9-3.4-2.6-1.9c-0.5,2.8-3.1,7.2-4.6,9.6C27.1,99,29.1,92.4,32.1,86.4L32.1,86.4z M20,109.4c2.8,3,10.3,11.9,11.4,22.5
			c-2.1,3.3-3.8,6.8-4.9,10.5c-2.6-1.1-3.4-16.2-3.4-18.6c-0.9-5.8-2.4-3-2.7-2.2c0.7,4.1,0.7,7.9,2.2,14.6c1.1,4.7-0.3,7-1.2,7.9
			c-0.8-0.5-1.5-0.9-2.2-1.3C18.6,139.8,15.4,124.6,20,109.4L20,109.4z M16.4,144c4,2.2,15,8.7,19.4,18l0.2-0.1
			c-0.7,4.1-0.9,8.2-0.7,12.3c-0.5,0-0.9-0.1-1.4-0.2c-1.7,0-7.7-13.7-8.7-15.6c-3.6-3.2-3.4,0.4-3.8,1.3
			c2.2,5.8,8.6,12.9,10.6,14.8c1.4,1.6,0.4,4.3-0.3,5.6c-1.8-0.5-3.5-0.8-5.3-1.1l0.2-0.2l0,0C26.4,178.5,17.8,168.8,16.4,144
			L16.4,144z M19.9,181c4.3-0.2,16.7,0.4,30,11l0,0l0,0c4.4,3.6,8.4,7.7,11.8,12.2l0,0c0,0,0.2,0.2,0.4,0.5c0.4,0.6,0.9,1.2,1.3,1.9
			C57.6,208.7,36.1,213.7,19.9,181z"/>
		<path class="st1" d="M193.3,199.2c1.8-1.9,9-4.8,12.9-8.1c4.9-3.5,3.4,1.6,3.4,1.6c-6.9,5.5-15.4,11.6-15.4,11.6
			C191.2,204,191.5,200.5,193.3,199.2z"/>
		<path class="st1" d="M182.5,184.7c0.3-4.2,0.9-8.4,1.8-12.5c1.4-6.9,2.8-2.6,2.8-2.6c0.3,5.5-0.5,9.6-1,15.1
			C184.3,192.1,182.5,184.7,182.5,184.7z"/>
		<path class="st1" d="M175.1,208.4c0.4,0.2,28.9,13.4,48.3-27.9l0.8-1.7l-1.6-0.3c-1.9-0.2-3.8-0.2-5.7-0.1
			c2.9-4.4,8.6-15.5,9.4-36.5l0.1-2l-1.5,0.7c-0.1,0-0.5,0.2-1.2,0.6c1.1-5.8,3-20.2-1.9-34.6l-0.5-1.5l-1.1,1
			c-1.2,1.2-2.3,2.4-3.4,3.7c-0.4-5.1-1.9-16.6-7.5-26.3l-0.6-1.1l-0.8,0.8c-2.2-5.7-5.2-11.1-8.9-15.9l-0.9-1.1l-0.7,1.3
			c-0.1,0.1-0.7,1.3-1.5,3c-2.4-5.3-9.1-18-18.3-19.6l-1.2-0.2v1.5c0,0.1,0,0.3,0,0.8c-3.6-3.6-11.7-10.6-22.8-12.3l-2.1-0.3
			l1.1,2.3c0.3,0.6,7,14.2,16,21.8c-0.1,0-0.1,0-0.2,0.1L167,65l1,1.6c0.4,0.6,9.7,14.5,16.3,17.8c0.7,4.8,2.7,13.8,8.8,19.1
			l0.1,1.4c0.7,5.8,2.5,11.4,5.4,16.5c-1.2-0.8-2.4-1.5-3.7-2.1l-1.4-0.7v1.9c0,0.7-0.1,12.8,2,21.6c0,0-0.1-0.1-0.1-0.1l-0.9-0.9
			l-0.6,1.3c-2.6,5.9-4.3,12.1-5.1,18.5c-0.6-2.1-1.3-4.3-2.1-6.5l-0.8-2l-1,1.9c-7.4,15.5-10.4,32.7-8.5,49.7 M189,190.4
			c-4,3.3-7.6,7.1-10.8,11.2c-1.2-15.1,1.4-30.2,7.4-44C189.4,168.1,190.6,179.3,189,190.4L189,190.4z M195,145
			c11.5,13,8.1,34.3,7.5,37.2c-1.1,0.5-2.3,1-3.5,1.6c-1.4-0.7-2-2.4-1.3-3.9c1.5-9.2,2.1-12.6,1.4-17.6c0,0-2.1-4.1-2.7,4.3
			c-0.7,6.2-0.9,11.6-2.1,13.9c-1.3,1.2-1.6,2.1-2.6,2.3c0.1-5.6-0.4-11.2-1.6-16.7h0.2C190.8,158.9,192.4,151.8,195,145L195,145z
			 M213.2,148.4c-1.6,1.3-3.1,2.7-4.5,4.2c-0.9-0.4-2.2-2-2.2-7.4c-0.5-3.6-0.7-7.9-1.9-9.4c0,0-3.8-2.4-1.7,3.9
			c0.7,3,2.1,10.5,0.5,13c-0.3,0.2-0.6,0.4-0.9,0.7c-0.8-2.2-1.8-4.3-3.1-6.2l0.2-0.2c-3.5-5.1-4.1-19.4-4.1-24.6
			C210.4,130.5,212.9,145.5,213.2,148.4L213.2,148.4z M195.5,106c9.4,0.6,14.9,8.6,16.5,11.3c-0.8,1.5-1.6,3.1-2.3,4.7
			c-1.1-0.8-3.2-2.9-4.5-7.4c-0.7-2.3-2.4-4.5-4.3-3.8c0,0-0.9,1.1,1.5,5.3c1.2,2.5,5.2,10.1,2.6,10.5c-0.1-0.2-0.3-0.3-0.5-0.4
			l0.2-0.2C198.1,118.8,196.1,109.5,195.5,106z M186.2,82.9c7.4,2.7,13.8,12.3,15,14.2c-0.2,1.1-0.4,2.2-0.4,3.3
			c-2.1-2.8-8-10.6-9.1-12.7c-1.4-2.6-4.1-3.4-0.5,3.4c2.3,3.4,5.7,8.6,6.6,12.5l-0.9-0.1l0.1-0.4C188.9,98.8,186.8,87.3,186.2,82.9
			z M170.7,66.6c5.6-1.3,9.2,0.4,10,0.9c2.9,5.5,6.8,10.4,11.6,14.3c-0.1,0.5-0.2,1.1-0.2,1.6c-1.4-1.1-2.9-2-4.5-2.7
			c-1.7-2.7-5.9-9.2-8.4-10.2c-1.2-0.7-3.8-3.2-1.6,1.7c1.1,1.7,2.2,4.2,1.4,4.8C176.1,73.8,173.3,70.3,170.7,66.6z M177.1,57
			c0.5,2.4,1.2,4.8,2.1,7.1c-0.7-0.2-1.4-0.3-2.1-0.5c-1.9-3.1-6.7-10.6-10.3-12.8c-0.8-0.4-3.5-1.3,0.4,4.5
			c2.1,2.4,5.1,5.8,5.9,8.2c-0.5,0-1,0.1-1.6,0.2v-0.1c-7.2-5.2-13.3-15.4-15.9-20C168.6,46.7,177,56.9,177.1,57L177.1,57z
			 M194.9,73.4c-0.3,0.8-0.6,1.7-0.9,2.6c-1.5-2.5-4.9-8.3-8.4-13.5c-1.2-1.3-5.5-6.7-2.8,0.7c0,0,6.4,7.9,3.6,9.1
			c-4.1-5.3-6.7-11.6-7.6-18.3C187.3,56.5,193.5,70.1,194.9,73.4z M206.5,85.3c-0.8,1.2-1.6,2.4-2.3,3.6c-1.1-3-1.9-6.1-2.4-9.3
			c0,0-2.2-6-1.7,1.7c-0.3,3.8,0.2,8.1-0.9,9.1c-1.6-1.9-3.3-3.7-5.1-5.4c0.4-5.8,3.2-11.9,4.5-14.6C201.8,75,204.5,80,206.5,85.3z
			 M214.4,105.7c-1.6-2.4-4.2-6.8-4.6-9.6c-0.7-1.5-4.3-4.9-2.6,1.9c0,0,5.5,10.5,2.2,12.2c-1.9-2-4-3.6-6.5-4.8
			c-1.2-9.4,3.6-16.6,5.5-19C211.6,92.5,213.6,99,214.4,105.7z M221.4,142.7c-0.7,0.4-1.4,0.8-2.2,1.3c-0.9-0.9-2.3-3.1-1.2-7.9
			c1.5-6.6,1.5-10.5,2.2-14.6c-0.4-0.8-1.9-3.6-2.8,2.2c0,2.4-0.9,17.5-3.4,18.6c-1.1-3.7-2.7-7.3-4.9-10.5
			c1.1-10.6,8.6-19.5,11.4-22.5C225.3,124.6,222.1,139.8,221.4,142.7L221.4,142.7z M214.2,178.6L214.2,178.6l0.2,0.2
			c-1.8,0.3-3.6,0.6-5.3,1.1c-0.6-1.4-1.6-4-0.3-5.6c2.1-1.9,8.4-9,10.6-14.8c-0.3-0.9-0.2-4.5-3.8-1.3c-1,1.9-7,15.6-8.7,15.6
			c-0.5,0.1-0.9,0.2-1.4,0.2c0.2-4.1-0.1-8.2-0.7-12.3l0.2,0.1c4.4-9.3,15.3-15.8,19.3-18C222.9,168.8,214.3,178.5,214.2,178.6
			L214.2,178.6z M177.3,206.6c0.4-0.6,0.9-1.3,1.3-1.9c0.3-0.3,0.4-0.5,0.4-0.5l0,0c3.4-4.6,7.4-8.7,11.8-12.3l0,0l0,0
			c13.3-10.6,25.6-11.2,30-11C204.6,213.7,183.1,208.7,177.3,206.6L177.3,206.6z"/>
		<path class="st2" d="M63.3,174l-23.9,37.4c4.8,5.2,21.5,18.6,21.5,18.6l23.7-33.4l-21,8.2L63.3,174z"/>
		<path class="st1" d="M61.1,231.8l-1-0.8c-0.7-0.6-16.8-13.5-21.6-18.7l-0.7-0.7l26.7-41.7l0.2,33.1l23.2-9L61.1,231.8z M41,211.3
			c4.6,4.6,16.1,14.1,19.6,17l20.6-29l-18.8,7.4l-0.2-28.4L41,211.3z"/>
		<path class="st2" d="M177.3,174l23.9,37.4c-4.8,5.2-21.4,18.6-21.4,18.6l-23.7-33.4l21,8.2L177.3,174z"/>
		<path class="st1" d="M179.6,231.8L152.7,194l23.2,9l0.2-33.1l26.7,41.7l-0.7,0.7c-4.8,5.2-20.9,18.2-21.6,18.7L179.6,231.8z
			 M159.5,199.3l20.6,29c3.5-2.9,15-12.3,19.6-17l-21.1-33l-0.2,28.4L159.5,199.3z"/>
		<path class="st2" d="M120.3,227.4c13.6,0,26.9,3.9,38.3,11.4l11.4-28.8c-30.9-17.1-68.5-17.1-99.4,0l11.4,28.8
			C93.4,231.4,106.7,227.4,120.3,227.4z"/>
		<path class="st1" d="M159.2,240.7l-1.3-0.8c-22.9-14.9-52.4-14.9-75.2,0l-1.3,0.8l-12.4-31.3l1-0.5c31.3-17.3,69.3-17.3,100.6,0
			l1,0.5L159.2,240.7z M72.2,210.5L82.7,237c23.1-14.3,52.3-14.3,75.3,0l10.5-26.4C138.4,194.4,102.2,194.4,72.2,210.5L72.2,210.5z"
			/>
		<path class="st1" d="M89.1,216.6c1-1.2,2.1-2.3,3.2-3.4c-1-0.1-2,0.1-2.9,0.4c-1.5,0.5-2.8,1.4-3.7,2.7c0.6-0.2,1.3-0.3,2-0.2
			C88.2,216,88.7,216.2,89.1,216.6z M97.6,212.4l-0.7-1l-1.5-3.9l2.4,0.1l0.3,0.1c0.1,0.3,0.4,0.5,0.7,0.6h0.7
			c0.2,0,0.5-0.1,0.9-0.1l3.5,0.9l-4.2,0.9l2.9,11.4c-0.9-0.2-1.9-0.3-3.3-0.7l-1.4-5.8c-0.7-0.7-1.6-1.1-2.6-1.3
			c-2,1.9-3.9,4-5.6,6.1c-1.4,0.3-2.8,0.5-4.1,1c0.5-0.7,1-1.5,1.6-2.2c0.1-0.2,0.1-0.4,0-0.5c-0.2-0.5-0.7-0.7-1.1-0.5
			c-0.1,0-0.1,0.1-0.2,0.1c-0.4,0.2-0.8,0.4-1.1,0.7c-0.5,0.4-0.9,0.7-1.4,1c-0.4,0.2-0.9,0.3-1.4,0.3c-0.6,0-1-0.1-1.1-0.4
			s0-1,0.6-2c0.5-0.8,1.1-1.5,1.7-2.2c1.4-1.2,3.1-2.2,4.8-2.9c1.8-0.7,3.7-1,5.6-1C95,211.4,96.4,211.8,97.6,212.4z"/>
		<path class="st1" d="M97.1,223c-0.8,0.3-1.2,0.6-1.2,0.8s0.4,0.3,0.8,0.1c0.4-0.2,0.8-0.4,1.2-0.6c0.5-0.3,0.8-0.4,0.7-0.5
			C98.2,222.7,97.6,222.8,97.1,223z M107.1,224.5c-0.2,0-0.4,0-0.6-0.1c-1.3-0.6-2.6-1-3.9-1.2c-0.4-0.1-0.7-0.2-1-0.3l-0.3-0.1
			c-0.4,0.5-0.9,0.9-1.4,1.3c-0.6,0.4-1.2,0.7-1.9,0.9c-0.8,0.3-1.7,0.5-2.5,0.5c-1,0-1.6-0.2-1.9-0.6c-0.4-0.6-0.2-1.4,0.3-1.9
			c0.7-0.7,1.6-1.3,2.6-1.6c1-0.3,1.9-0.4,2.9-0.3c-0.1-0.3-0.1-0.5-0.3-0.8c-0.2-0.4-0.3-0.6-0.3-0.8c0.1-0.1,0.3-0.2,0.4-0.3
			c0.6-0.1,1.2,0,1.7,0.3c0.4,0.2,0.8,0.5,1,0.9l0.1,0.4l0.2,0.4c0.7,0.1,1.4,0.3,2,0.5c1.7,0.5,2.8,1.1,3.3,2c0,0.1,0,0.2,0,0.3
			C107.6,224.4,107.4,224.5,107.1,224.5L107.1,224.5z"/>
		<path class="st1" d="M128.4,206.1l-1-1.6c-1.2-0.7-2.6-1.4-3.9-1.9c-3.6-1.3-7.5-1.8-11.3-1.5c-1.2,0.1-2.3,0.3-3.5,0.6
			c-1.4,0.5-2.7,1.1-3.9,1.9c-0.6,0.5-1.1,1-1.7,1.5c-0.3,0.3-0.5,0.7-0.4,1.2c0,0.3,0.3,0.5,0.8,0.6l1.3,0.4
			c-2.1,0.3-4.1,0.8-6.1,1.3c1.2,0.3,2.4,0.5,3.6,0.8c1-0.2,2.1-0.4,3.2-0.6l1.8,10.2c1.1,0.4,2.1,0.7,3.1,1.1l-1.6-11.8
			c1.6-0.2,3.1-0.3,4.7-0.4c-1.2-0.4-2.3-0.9-3.5-1.3c-0.8,0.1-1.6,0.2-2.4,0.3l-0.9-0.7c0-0.1,0.2-0.5,0.9-1c0.5-0.4,1-0.8,1.5-1.1
			c1.8-0.8,3.7-1.2,5.6-1.4c2.9-0.2,5.7,0.2,8.4,1.2C124.9,204.6,126.6,205.3,128.4,206.1z"/>
		<path class="st1" d="M137.4,209.3c-1-0.8-2-1.4-3.1-2.2c-8.7-1.4-17.6-1.4-26.4-0.2c1.2,0.3,2.4,0.8,3.6,1.3c6-0.6,12-0.6,18,0
			l-0.2,1.9l-0.3-0.2l-0.8-0.6c-0.8-0.4-1.6-0.6-2.4-0.7c-0.6,0-1.2,0.1-1.7,0.3c-0.5,0.1-1,0.4-1.4,0.7l-0.3-0.2
			c-1.4-0.7-3.1-1-4.7-0.9c-1.5,0-2.9,0.4-4.1,1.3c-1.2,0.8-1.5,2.4-0.7,3.6c0.4,0.6,1,1,1.7,1.1c1.5,0.6,3.1,0.8,4.7,0.8
			c1.8-0.1,3-0.4,3.7-1.2c0.3-0.3,0.1-0.7-0.3-1.3c-0.7-0.8-1.7-1.3-2.8-1.2c-0.7,0-1.4,0.2-2.1,0.5c-0.6,0.3-0.8,0.7-0.8,1.1
			c0,0.2,0.1,0.4,0.2,0.5c-1.1-0.2-1.6-0.6-1.6-1.2c0-0.1,0-0.3,0.1-0.4c0.2-0.5,0.7-0.9,1.2-1.1c0.7-0.3,1.5-0.4,2.3-0.4
			c1-0.1,2,0.1,2.9,0.6c0.4,0.2,0.8,0.5,1.2,0.9c0.3,0.3,0.3,0.5,0,0.8l2.3-0.4c-0.2-0.7-0.1-1.2,0.1-1.4c0.3-0.2,0.7-0.3,1.1-0.2
			c0.6,0.1,1.2,0.3,1.7,0.6c0.6,0.3,0.8,0.6,0.8,0.9l-0.7,6.3c0.9,0.6,1.8,1.2,2.6,1.9l1.8-11.8C134.3,208.8,135.9,209,137.4,209.3z
			"/>
		<path class="st1" d="M160.8,217.7c-0.7-1-1.4-1.9-2.1-2.9c-0.9-0.5-1.4-0.9-1.5-1.2s0-0.7,0-1c-0.4-0.5-1-1.1-1.8-1.9l-0.9,2.6
			l-0.7,2.5l-0.3-0.5c-1.3-2.4-2.6-3.8-3.8-4.2c-0.2-0.1-0.6-0.2-1.2-0.3c-1.6-0.4-3.3-0.3-4.8,0.2c-0.2-0.3-0.5-0.6-0.8-0.9
			c0,0-0.4-0.4-1.1-0.9c-0.9-0.5-1.9-0.9-3-1.1c-2-0.5-4-0.7-6-1c1,0.7,2,1.4,3,2.1c2.6,0.5,3.4,0.7,2.6,0.5
			c0.7,0.2,1.5,0.4,2.1,0.8c0.3,0.3,0.6,0.5,0.8,0.9h-0.5c-0.8,0.1-1.7,0.3-2.5,0.5c-0.6,0.1-1.1,0.6-1.2,1.2c0,0.2,0,0.3,0,0.5
			c0.5,1.1,1.5,1.8,2.6,1.9c1.2,0.4,2.6,0.3,3.8-0.1c0.7,0.9,1.7,1.5,2.8,1.9c1,0.5,2.1,0.5,3.1,0.2c0.3-0.1,0.5-0.4,0.6-0.7
			c0.2-0.4,0-1-0.5-1.6c-0.6-0.6-1.2-1.1-1.8-1.7c0.3-0.2,1-0.2,2,0.1c0.9,0.3,1.7,1,2.1,1.9c0.6,1,0.8,1.6,0.7,1.8l-3.1,6.5
			c0.7,0.9,1.4,1.7,2,2.6l5.4-10.7L160.8,217.7z"/>
		<path class="st1" d="M107.7,36.8c1.7-2.5,2.7-3.2,3-10.4c-12-10.8-20.8-11.9-20.8-11.9C89.9,16.2,90.2,31,107.7,36.8z M105.9,31.5
			c-4.7-2-8.5-5.9-10.4-10.6c3.9,2,7.6,4.5,10.9,7.4C106.3,29.4,106.2,30.5,105.9,31.5z"/>
		<path class="st1" d="M106.5,39C91.7,28.3,79,28.6,79,28.6c0.6,2.6,8.3,23.1,29.9,25.6C109.3,50.4,111.3,42.4,106.5,39z
			 M105.3,49.3c-10.2-2.6-16.2-10-19.3-15.4c6.5,1.7,12.6,4.6,18,8.5l0,0c1.1,0.8,1.4,2.5,1.4,4.4C105.4,47.6,105.4,48.4,105.3,49.3
			L105.3,49.3z"/>
		<path class="st1" d="M103.3,18.6l8.2,6.1c0,0,1.9-8.5,1.6-11.1c0,0-2.7-6.6-7.9-9.9c-3.5,5.5-2.7,11-2.2,14.7L103.3,18.6z
			 M106.8,12l2.8,3.8l-0.3,1.9l-2.5-0.9L106.8,12z"/>
		<path class="st1" d="M111.6,53.3c4.2,1.1,4.9,2,4.9,2v4.4h7.7v-4.4c0,0,0.7-0.9,4.9-2c1.2-20.7-5.2-44.2-8.7-53.3
			C116.8,9.2,110.4,32.6,111.6,53.3z M122.4,49.6h-4.2c-1.3-12.5,0.4-29.6,2.1-37C122,20,123.8,37.1,122.4,49.6z"/>
		<path class="st1" d="M150.8,14.5c0,0-8.8,1.1-20.8,11.9c0.3,7.2,1.3,7.8,3,10.4C150.5,31,150.8,16.2,150.8,14.5z M145.2,20.9
			c-2,4.8-5.7,8.6-10.4,10.6c-0.3-1.1-0.4-2.2-0.5-3.3C137.6,25.4,141.3,22.9,145.2,20.9z"/>
		<path class="st1" d="M134.2,39c-4.9,3.4-2.8,11.4-2.5,15.3c21.6-2.5,29.3-23,29.9-25.6C161.6,28.6,149,28.3,134.2,39z M135.4,49.3
			c-0.1-0.8-0.1-1.7-0.1-2.5c0-1.9,0.3-3.6,1.4-4.4h0.1c5.4-4,11.5-6.9,18-8.5C151.5,39.2,145.5,46.6,135.4,49.3L135.4,49.3z"/>
		<path class="st1" d="M137.4,18.6l0.3-0.2c0.5-3.8,1.3-9.2-2.2-14.7c-5.2,3.3-7.9,9.9-7.9,9.9c-0.3,2.7,1.6,11.1,1.6,11.1
			L137.4,18.6z M133.9,12v4.7l-2.5,0.9l-0.3-1.9L133.9,12z"/>
		<path class="st1" d="M110.6,114.3c-13.2,0.8-14,7-14.9,11.2c-0.9,4.2,0.6,6,2.9,6s19.4,0.6,31.1,0.6c0.4-6.6,3.8-17.6,3.8-17.6
			C125.8,113.8,118.2,113.8,110.6,114.3z M100.4,129.4c-1.4,0-2.6-1.1-2.6-2.5c0-0.3,0-0.6,0.2-0.9c1-6.2,5.4-5.2,5.4-5.2
			L100.4,129.4z M112,129.2l-5.6-0.1l0.3-2.4l5.5,0.2L112,129.2z M112.6,125.1l-4.8-0.4c0.5-2.1,1.1-4.2,1.9-6.2
			c0.7-1.3,2.2-2.2,4.9-1.7C114.2,118.3,112.6,125.1,112.6,125.1z M121.7,129.7l-5.5,0.1l0.2-2.7l5.9-0.1L121.7,129.7z M122.7,124.7
			l-5.2,0.4l1.5-7.1l5.4-0.4L122.7,124.7z M128.1,129.7l-3.4,0.2l0.3-3.1h3.5L128.1,129.7z M129.3,123.8l-4.2-0.1l1.6-6.8l3.9-0.1
			L129.3,123.8z"/>
		<path class="st1" d="M152.2,66.7c-9-5.6-40.4-17.9-74,6.8c3.2,7.2,11.6,33.6-4.9,56.7c1.1,0.2,1.9,0.6,5.3,1.6
			c2.6-9.1,4.9-18.4,10.7-22.9s10.7-8,26.3-8.4c-0.6,6-0.6,6.6-0.6,6.6s-19.3,0.2-23.3,10.7s-5.6,15.9-5.6,15.9l4.7,1.2
			c0.2-4.7,1.9-19.2,10.5-21.7s24-1.8,29.9-1.4s6.4,2.1,6.4,2.1s-6,12.4-6,21.4c3.8-0.2,4.3-4.3,4.3-4.3l13.3-1.9L149,133l7.5-1.6
			c0.6-11.1,4.1-43.3,4.1-48.1S161.2,72.3,152.2,66.7z M146.2,128.1l-9.2-0.2l0.4-2.8l9.2,0.3L146.2,128.1z M137.6,123.3l0.6-2.5
			h8.7l0.4,2.8L137.6,123.3z M138.4,118.6l1.5-3.4l4.3,1l1.1,2.6L138.4,118.6z M153.9,116.8c0.1,1.9-1.7,6-3.1,2.4
			c-7.3-13.8-29.3-11.9-29.3-11.9c-0.2-2.4-0.1-4.9,0.2-7.3c7.5-1,23.6,3.6,29.3,7.4S153.7,114.9,153.9,116.8L153.9,116.8z
			 M154.3,104.7c-11.8-7.6-44-16.3-67.6,0.2c1.9-9.5,1.2-23.5-3.7-29.9c7.7-6,43.8-25.8,72.9,0.8C156.2,85.5,155.6,95.1,154.3,104.7
			L154.3,104.7z"/>
		<path class="st1" d="M73.3,128.7c0,0-5.6,0.5-5.3-6.4c-2.3,0.3-2-0.5-2-0.5l0.5-4.1c0,0,3.5-4.2,4-6.6c-4-1-9.9-4.4-9.9,6.3
			c-3,3.2-4.3,4.6-4.3,4.6s16.2,40,18.2,45.1c4.8,0.2,14.4,0.5,18.2,2.7s13.4,3.2,19.2,0.2s10.9-0.2,14.9,0.2
			c4,0.5,10.6,2.4,19.5-0.5s17.5-3.7,19.5-2.9c3.3-9.3,12.4-42,12.4-42S116.3,144.5,73.3,128.7z M163.1,163.5
			c-5.1-0.6-10.2,0-14.9,1.9c-5.8,2.7-12.4,3.1-18.5,1.2c-5.6-1.5-12.7-3.2-20.3,0.7S99.1,167.7,95,166c-5.7-2.1-11.7-3.2-17.7-3.2
			l-1.8-5.1c0,0,44.8,10.7,89.4-0.7C164.4,159.2,163.8,161.4,163.1,163.5z M166.1,153c-37.7,9.8-66.6,4.1-91.9,1l-3.8-7.8
			c0,0,50.1,11.9,97.7-2.2C167.7,147.1,167.1,150.1,166.1,153L166.1,153z M69.1,141.6l-5.6-12c0,0,46.1,21.5,108.6,1l-2.8,8.8
			C121.1,151.6,89.2,146,69.1,141.6L69.1,141.6z"/>
		<path class="st1" d="M166,191.2c-6.2-2.7-13.1-3.2-19.6-1.3l-0.6,0.1c-2.9,0.7-8.9,2.1-15.2-0.9l-0.2-0.1h-0.2
			c-5.5-0.5-11.1-0.1-16.4,1.2c0.1,0-0.4,0.1-0.4,0.1c-8,1.3-15,0.9-20.8-1.2l-0.2-0.1h-1.1c-3.2,0-10.6-0.1-16.6,2.1l1.1,2.3
			c5.5-2,12.5-2,15.5-2h0.8l-0.5-0.1c6.4,2.3,13.9,2.7,22.4,1.3l0.5-0.1c5-1.2,10.2-1.6,15.4-1.2l-0.4-0.1
			c7.2,3.5,14.2,1.9,17.2,1.1l0.7-0.1c5.8-1.7,11.9-1.3,17.5,1L166,191.2z"/>
		<path class="st1" d="M166,185.9c-6.2-2.7-13.1-3.2-19.6-1.3l-0.6,0.1c-2.9,0.7-8.9,2.1-15.2-0.9l-0.2-0.1h-0.2
			c-5.5-0.5-11.1-0.1-16.4,1.2c0.1,0-0.4,0.1-0.4,0.1c-8,1.3-15,0.9-20.9-1.2l-0.2-0.1h-1c-3.2,0-10.6-0.1-16.6,2.1l1.1,2.3
			c5.5-2,12.5-2,15.5-2h0.8l-0.5-0.1c6.4,2.3,13.9,2.7,22.4,1.3l0.5-0.1c5-1.2,10.2-1.6,15.4-1.2l-0.4-0.1
			c7.2,3.5,14.2,1.9,17.2,1.1l0.7-0.1c5.8-1.7,11.9-1.3,17.5,1L166,185.9z"/>
		<path class="st1" d="M166,180.6c-6.2-2.7-13.1-3.2-19.6-1.3l-0.6,0.1c-2.9,0.7-8.9,2.1-15.2-0.9l-0.2-0.1h-0.2
			c-5.5-0.5-11.1-0.1-16.4,1.2c-0.1,0-0.3,0-0.4,0c-8,1.3-15,0.9-20.9-1.2l-0.2-0.1h-1c-3.2,0-10.6-0.1-16.6,2.1l1.1,2.3
			c5.5-2,12.5-2,15.5-1.9h0.8l-0.5-0.1c6.4,2.2,13.9,2.7,22.4,1.3l0.5-0.1c5-1.2,10.2-1.6,15.4-1.2l-0.4-0.1
			c7.2,3.5,14.2,1.8,17.2,1.1l0.7-0.2c5.8-1.7,11.9-1.3,17.5,1.1L166,180.6z"/>
		<path class="st1" d="M166,175.3c-6.2-2.7-13.1-3.2-19.6-1.3l-0.6,0.1c-2.9,0.7-8.9,2.1-15.2-0.9l-0.2-0.1h-0.2
			c-5.5-0.5-11.1-0.1-16.4,1.2c0.1,0-0.4,0.1-0.4,0.1c-8,1.3-15,0.9-20.9-1.2l-0.2-0.1h-1c-3.2,0-10.6-0.1-16.6,2.1l1.1,2.3
			c5.5-2,12.5-2,15.5-1.9h0.8l-0.5-0.1c6.4,2.3,13.9,2.7,22.4,1.3l0.5-0.1c5-1.2,10.2-1.6,15.4-1.2l-0.4-0.1
			c7.2,3.5,14.2,1.8,17.2,1.1l0.7-0.2c5.8-1.7,11.9-1.3,17.5,1L166,175.3z"/>
	</g>
</g>
</svg>
